CD_DA

CATALOG "0724352840021"

// Track 1
TRACK AUDIO
NO COPY
NO PRE_EMPHASIS
TWO_CHANNEL_AUDIO
ISRC "GBAYE0000351"
SILENCE 03:48:35
FILE "b8ffac79.cdr" 0 03:27:10
START 03:48:35


// Track 2
TRACK AUDIO
NO COPY
NO PRE_EMPHASIS
TWO_CHANNEL_AUDIO
ISRC "GBAYE0000642"
FILE "b8ffac79.cdr" 03:27:10 03:32:42
START 00:00:55


// Track 3
TRACK AUDIO
NO COPY
NO PRE_EMPHASIS
TWO_CHANNEL_AUDIO
ISRC "GBAYE0000643"
FILE "b8ffac79.cdr" 06:59:52 03:37:20
START 00:01:25


// Track 4
TRACK AUDIO
NO COPY
NO PRE_EMPHASIS
TWO_CHANNEL_AUDIO
ISRC "GBAYE0000644"
FILE "b8ffac79.cdr" 10:36:72 03:57:35
START 00:01:33


// Track 5
TRACK AUDIO
NO COPY
NO PRE_EMPHASIS
TWO_CHANNEL_AUDIO
ISRC "GBAYE0000645"
FILE "b8ffac79.cdr" 14:34:32 04:10:25
START 00:01:30


// Track 6
TRACK AUDIO
NO COPY
NO PRE_EMPHASIS
TWO_CHANNEL_AUDIO
ISRC "GBAYE0000646"
FILE "b8ffac79.cdr" 18:44:57 04:01:73
START 00:01:63


// Track 7
TRACK AUDIO
NO COPY
NO PRE_EMPHASIS
TWO_CHANNEL_AUDIO
ISRC "GBAYE0000647"
FILE "b8ffac79.cdr" 22:46:55 03:32:07


// Track 8
TRACK AUDIO
NO COPY
NO PRE_EMPHASIS
TWO_CHANNEL_AUDIO
ISRC "GBAYE0000648"
FILE "b8ffac79.cdr" 26:18:62 04:08:20
START 00:01:48


// Track 9
TRACK AUDIO
NO COPY
NO PRE_EMPHASIS
TWO_CHANNEL_AUDIO
ISRC "GBAYE0000649"
FILE "b8ffac79.cdr" 30:27:07 03:43:50
START 00:01:63


// Track 10
TRACK AUDIO
NO COPY
NO PRE_EMPHASIS
TWO_CHANNEL_AUDIO
ISRC "GBAYE0000650"
FILE "b8ffac79.cdr" 34:10:57 04:09:28
START 00:01:15


// Track 11
TRACK AUDIO
NO COPY
NO PRE_EMPHASIS
TWO_CHANNEL_AUDIO
ISRC "GBAYE0000651"
FILE "b8ffac79.cdr" 38:20:10 03:22:72
START 00:01:22


// Track 12
TRACK AUDIO
NO COPY
NO PRE_EMPHASIS
TWO_CHANNEL_AUDIO
ISRC "GBAYE0000652"
FILE "b8ffac79.cdr" 41:43:07 03:34:58
START 00:02:18


// Track 13
TRACK AUDIO
NO COPY
NO PRE_EMPHASIS
TWO_CHANNEL_AUDIO
ISRC "GBAYE0000949"
FILE "b8ffac79.cdr" 45:17:65 04:20:00
START 00:00:52


// Track 14
TRACK AUDIO
NO COPY
NO PRE_EMPHASIS
TWO_CHANNEL_AUDIO
ISRC "GBAYE0000653"
FILE "b8ffac79.cdr" 49:37:65 04:48:12
START 00:00:55

